<?xml version="1.0" encoding="UTF-8" standalone="no"?>
<svg
   xmlns:dc="http://purl.org/dc/elements/1.1/"
   xmlns:cc="http://creativecommons.org/ns#"
   xmlns:rdf="http://www.w3.org/1999/02/22-rdf-syntax-ns#"
   xmlns:svg="http://www.w3.org/2000/svg"
   xmlns="http://www.w3.org/2000/svg"
   xmlns:sodipodi="http://sodipodi.sourceforge.net/DTD/sodipodi-0.dtd"
   xmlns:inkscape="http://www.inkscape.org/namespaces/inkscape"
   width="132mm"
   height="132mm"
   viewBox="0 0 132 132"
   version="1.1"
   id="svg8"
   inkscape:version="1.0.2 (e86c870879, 2021-01-15)"
   sodipodi:docname="logo_1.svg">
  <defs
     id="defs2" />
  <sodipodi:namedview
     id="base"
     pagecolor="#ffffff"
     bordercolor="#666666"
     borderopacity="1.0"
     inkscape:pageopacity="0.0"
     inkscape:pageshadow="2"
     inkscape:zoom="0.35"
     inkscape:cx="104.5248"
     inkscape:cy="683.01375"
     inkscape:document-units="mm"
     inkscape:current-layer="layer1"
     inkscape:document-rotation="0"
     showgrid="false"
     inkscape:window-width="1515"
     inkscape:window-height="1080"
     inkscape:window-x="32"
     inkscape:window-y="0"
     inkscape:window-maximized="0" />
  <metadata
     id="metadata5">
    <rdf:RDF>
      <cc:Work
         rdf:about="">
        <dc:format>image/svg+xml</dc:format>
        <dc:type
           rdf:resource="http://purl.org/dc/dcmitype/StillImage" />
        <dc:title></dc:title>
      </cc:Work>
    </rdf:RDF>
  </metadata>
  <g
     inkscape:label="Layer 1"
     inkscape:groupmode="layer"
     id="layer1"
     transform="translate(-40.814529,-85.74353)">
    <path
       style="fill:#ffff00;stroke-width:0.263345"
       id="path60"
       sodipodi:type="arc"
       sodipodi:cx="106.81453"
       sodipodi:cy="151.74353"
       sodipodi:rx="66"
       sodipodi:ry="66"
       sodipodi:start="0"
       sodipodi:end="6.2376148"
       sodipodi:open="true"
       sodipodi:arc-type="arc"
       d="m 172.81453,151.74353 a 66,66 0 0 1 -65.2481,65.99572 66,66 0 0 1 -66.734769,-64.49202 66,66 0 0 1 63.727569,-67.465155 66,66 0 0 1 68.18678,62.954845" />
    <path
       id="path56"
       style="fill:#ff6600;stroke-width:0.264583"
       d="m 131.67609,110.11849 c -16.61447,4.27813 -34.801047,4.73825 -49.534644,14.45849 -6.374256,4.20762 -11.802502,12.22042 -9.387503,20.09867 2.253076,4.74152 8.026204,5.86163 12.664771,6.98926 7.369466,2.40287 15.452726,2.48017 22.393226,6.15838 4.50547,1.82238 5.97543,7.16723 5.04356,11.57589 -1.35254,8.00523 -5.91997,15.8823 -13.542818,19.32483 -3.311218,1.81837 -8.296909,2.28424 -10.164903,-1.75413 -2.298911,-5.06249 -1.111799,-10.93046 0.200314,-16.10125 4.260892,-14.02862 16.204657,-23.90909 28.281457,-31.27734 7.4583,-4.50103 15.4795,-8.14274 23.91185,-10.38202 3.24232,-4.01479 -3.98555,-3.68472 -6.1279,-2.21207 -6.21871,4.26671 -13.32072,7.27031 -19.62982,11.49044 -10.79892,7.23917 -21.779104,15.98789 -26.446733,28.56792 -2.303761,7.06882 -2.920556,14.87764 -1.143196,22.1354 0.245308,3.43576 3.70891,5.59673 6.948062,4.85593 8.695567,-1.8766 15.367457,-9.41762 17.444377,-17.90634 1.40007,-5.60012 1.87,-11.66524 0.33089,-17.27261 -2.45495,-5.67078 -9.27725,-6.8784 -14.753955,-7.55419 -8.147362,-1.47627 -16.508356,-3.26707 -23.550966,-7.84603 -2.619011,-3.67266 0.211879,-8.0772 2.897949,-10.77331 8.074105,-9.30824 20.367539,-13.40939 32.153572,-15.5186 6.41851,-1.13758 12.93874,-1.79435 19.41288,-2.30352 2.14474,-0.41233 3.78293,-2.64983 2.59953,-4.7538 z" />
  </g>
</svg>
