<?xml version="1.0" encoding="UTF-8" standalone="no"?>
<svg
   xmlns:dc="http://purl.org/dc/elements/1.1/"
   xmlns:cc="http://creativecommons.org/ns#"
   xmlns:rdf="http://www.w3.org/1999/02/22-rdf-syntax-ns#"
   xmlns:svg="http://www.w3.org/2000/svg"
   xmlns="http://www.w3.org/2000/svg"
   xmlns:sodipodi="http://sodipodi.sourceforge.net/DTD/sodipodi-0.dtd"
   xmlns:inkscape="http://www.inkscape.org/namespaces/inkscape"
   width="210mm"
   height="297mm"
   viewBox="0 0 210 297"
   version="1.1"
   id="svg8"
   inkscape:version="1.0.2 (e86c870879, 2021-01-15)"
   sodipodi:docname="missile_rack.svg">
  <defs
     id="defs2" />
  <sodipodi:namedview
     id="base"
     pagecolor="#ffffff"
     bordercolor="#666666"
     borderopacity="1.0"
     inkscape:pageopacity="0.0"
     inkscape:pageshadow="2"
     inkscape:zoom="0.98994949"
     inkscape:cx="65.698629"
     inkscape:cy="659.8113"
     inkscape:document-units="mm"
     inkscape:current-layer="layer1"
     inkscape:document-rotation="0"
     showgrid="false"
     inkscape:window-width="1515"
     inkscape:window-height="1080"
     inkscape:window-x="202"
     inkscape:window-y="0"
     inkscape:window-maximized="0" />
  <metadata
     id="metadata5">
    <rdf:RDF>
      <cc:Work
         rdf:about="">
        <dc:format>image/svg+xml</dc:format>
        <dc:type
           rdf:resource="http://purl.org/dc/dcmitype/StillImage" />
        <dc:title></dc:title>
      </cc:Work>
    </rdf:RDF>
  </metadata>
  <g
     inkscape:label="Layer 1"
     inkscape:groupmode="layer"
     id="layer1">
    <rect
       style="fill:#008080;stroke-width:0.423883"
       id="rect10"
       width="200"
       height="100"
       x="5.9418607"
       y="33.826401"
       inkscape:transform-center-x="-28.321582"
       inkscape:transform-center-y="0.11122908" />
    <circle
       style="fill:#ffff00;stroke-width:0.541606"
       id="path18"
       sodipodi:type="arc"
       sodipodi:cx="106.77832"
       sodipodi:cy="62.717289"
       sodipodi:rx="22.5"
       sodipodi:ry="22.5"
       sodipodi:start="0"
       sodipodi:end="6.2376148"
       sodipodi:open="true"
       sodipodi:arc-type="arc"
       d="M 129.27832,62.717289 A 22.5,22.5 0 0 1 107.03465,85.215829 22.5,22.5 0 0 1 84.284161,63.229913 22.5,22.5 0 0 1 106.00947,40.230429 22.5,22.5 0 0 1 129.25496,61.692307"
       inkscape:transform-center-x="-66.538653"
       inkscape:transform-center-y="26.598457" />
    <circle
       style="fill:#ffff00;stroke-width:0.264583"
       id="path20"
       sodipodi:type="arc"
       sodipodi:cx="109.65819"
       sodipodi:cy="73.279045"
       sodipodi:rx="2.135179"
       sodipodi:ry="4.1470332"
       sodipodi:start="0"
       sodipodi:end="6.2376148"
       sodipodi:open="true"
       sodipodi:arc-type="arc"
       d="m 111.79337,73.279045 a 2.135179,4.1470332 0 0 1 -2.11086,4.146764 2.135179,4.1470332 0 0 1 -2.15895,-4.052281 2.135179,4.1470332 0 0 1 2.06167,-4.239094 2.135179,4.1470332 0 0 1 2.20592,3.955694" />
    <circle
       style="fill:#ffff00;stroke-width:0.541606"
       id="path18-3"
       sodipodi:type="arc"
       sodipodi:cx="34.55027"
       sodipodi:cy="63.237377"
       sodipodi:rx="22.5"
       sodipodi:ry="22.5"
       sodipodi:start="0"
       sodipodi:end="6.2376148"
       sodipodi:open="true"
       sodipodi:arc-type="arc"
       inkscape:transform-center-x="-66.538653"
       inkscape:transform-center-y="26.598457"
       d="M 57.05027,63.237377 A 22.5,22.5 0 0 1 34.806599,85.735917 22.5,22.5 0 0 1 12.05611,63.750001 22.5,22.5 0 0 1 33.781417,40.750517 22.5,22.5 0 0 1 57.026912,62.212396" />
    <circle
       style="fill:#ffff00;stroke-width:0.541606"
       id="path18-6"
       sodipodi:type="arc"
       sodipodi:cx="67.158691"
       sodipodi:cy="104.46957"
       sodipodi:rx="22.5"
       sodipodi:ry="22.5"
       sodipodi:start="0"
       sodipodi:end="6.2376148"
       sodipodi:open="true"
       sodipodi:arc-type="arc"
       inkscape:transform-center-x="-66.538653"
       inkscape:transform-center-y="26.598457"
       d="M 89.658691,104.46957 A 22.5,22.5 0 0 1 67.41502,126.96811 22.5,22.5 0 0 1 44.664532,104.98219 22.5,22.5 0 0 1 66.389839,81.982707 22.5,22.5 0 0 1 89.635333,103.44458" />
    <circle
       style="fill:#ffff00;stroke-width:0.541606"
       id="path18-7"
       sodipodi:type="arc"
       sodipodi:cx="177.30405"
       sodipodi:cy="63.551453"
       sodipodi:rx="22.5"
       sodipodi:ry="22.5"
       sodipodi:start="0"
       sodipodi:end="6.2376148"
       sodipodi:open="true"
       sodipodi:arc-type="arc"
       inkscape:transform-center-x="-66.538653"
       inkscape:transform-center-y="26.598457"
       d="m 199.80405,63.551453 a 22.5,22.5 0 0 1 -22.24367,22.498539 22.5,22.5 0 0 1 -22.75049,-21.985916 22.5,22.5 0 0 1 21.7253,-22.999483 22.5,22.5 0 0 1 23.2455,21.461878" />
    <circle
       style="fill:#ffff00;stroke-width:0.541606"
       id="path18-5"
       sodipodi:type="arc"
       sodipodi:cx="142.03018"
       sodipodi:cy="105.1626"
       sodipodi:rx="22.5"
       sodipodi:ry="22.5"
       sodipodi:start="0"
       sodipodi:end="6.2376148"
       sodipodi:open="true"
       sodipodi:arc-type="arc"
       inkscape:transform-center-x="-66.538653"
       inkscape:transform-center-y="26.598457"
       d="m 164.53018,105.1626 a 22.5,22.5 0 0 1 -22.24367,22.49854 22.5,22.5 0 0 1 -22.75049,-21.98592 22.5,22.5 0 0 1 21.72531,-22.999482 22.5,22.5 0 0 1 23.24549,21.461882" />
    <rect
       style="fill:#008080;stroke-width:0.423883"
       id="rect10-0"
       width="200"
       height="100"
       x="5"
       y="181"
       inkscape:transform-center-x="-28.321582"
       inkscape:transform-center-y="0.11122908" />
    <circle
       style="fill:#ffff00;stroke-width:0.541606"
       id="path18-9"
       sodipodi:type="arc"
       sodipodi:cx="78.5"
       sodipodi:cy="205.5"
       sodipodi:rx="22.5"
       sodipodi:ry="22.5"
       sodipodi:start="0.12217305"
       sodipodi:end="6.2376148"
       sodipodi:open="true"
       sodipodi:arc-type="arc"
       inkscape:transform-center-x="-66.538653"
       inkscape:transform-center-y="26.598457"
       d="M 100.83229,208.24206 A 22.5,22.5 0 0 1 76.696601,227.92761 22.5,22.5 0 0 1 56.016502,204.63843 22.5,22.5 0 0 1 78.418221,183.00015 22.5,22.5 0 0 1 100.97664,204.47502" />
    <circle
       style="fill:#ffff00;stroke-width:0.541606"
       id="path18-3-6"
       sodipodi:type="arc"
       sodipodi:cx="29.5"
       sodipodi:cy="205.5"
       sodipodi:rx="22.5"
       sodipodi:ry="22.5"
       sodipodi:start="0"
       sodipodi:end="6.2376148"
       sodipodi:open="true"
       sodipodi:arc-type="arc"
       inkscape:transform-center-x="-66.538653"
       inkscape:transform-center-y="26.598457"
       d="M 52,205.5 A 22.5,22.5 0 0 1 29.756329,227.99854 22.5,22.5 0 0 1 7.0058404,206.01262 22.5,22.5 0 0 1 28.731147,183.01314 22.5,22.5 0 0 1 51.976641,204.47502" />
    <circle
       style="fill:#ffff00;stroke-width:0.541606"
       id="path18-6-0"
       sodipodi:type="arc"
       sodipodi:cx="29.5"
       sodipodi:cy="255.5"
       sodipodi:rx="22.5"
       sodipodi:ry="22.5"
       sodipodi:start="0"
       sodipodi:end="6.2376148"
       sodipodi:open="true"
       sodipodi:arc-type="arc"
       inkscape:transform-center-x="-66.538653"
       inkscape:transform-center-y="26.598457"
       d="M 52,255.5 A 22.5,22.5 0 0 1 29.756329,277.99854 22.5,22.5 0 0 1 7.0058404,256.01262 22.5,22.5 0 0 1 28.731147,233.01314 22.5,22.5 0 0 1 51.976641,254.47502" />
    <circle
       style="fill:#ffff00;stroke-width:0.541606"
       id="path18-5-2"
       sodipodi:type="arc"
       sodipodi:cx="78.5"
       sodipodi:cy="255.5"
       sodipodi:rx="22.5"
       sodipodi:ry="22.5"
       sodipodi:start="0"
       sodipodi:end="6.2376148"
       sodipodi:open="true"
       sodipodi:arc-type="arc"
       inkscape:transform-center-x="-66.538653"
       inkscape:transform-center-y="26.598457"
       d="M 101,255.5 A 22.5,22.5 0 0 1 78.756329,277.99854 22.5,22.5 0 0 1 56.00584,256.01262 22.5,22.5 0 0 1 77.731147,233.01314 22.5,22.5 0 0 1 100.97664,254.47502" />
    <circle
       style="fill:#ffff00;stroke-width:0.541606"
       id="path18-9-5"
       sodipodi:type="arc"
       sodipodi:cx="180.5"
       sodipodi:cy="205.5"
       sodipodi:rx="22.5"
       sodipodi:ry="22.5"
       sodipodi:start="0.12217305"
       sodipodi:end="6.2376148"
       sodipodi:open="true"
       sodipodi:arc-type="arc"
       inkscape:transform-center-x="-66.538653"
       inkscape:transform-center-y="26.598457"
       d="m 202.83229,208.24206 a 22.5,22.5 0 0 1 -24.13569,19.68555 22.5,22.5 0 0 1 -20.6801,-23.28918 22.5,22.5 0 0 1 22.40172,-21.63828 22.5,22.5 0 0 1 22.55842,21.47487" />
    <circle
       style="fill:#ffff00;stroke-width:0.541606"
       id="path18-3-6-9"
       sodipodi:type="arc"
       sodipodi:cx="131.5"
       sodipodi:cy="205.5"
       sodipodi:rx="22.5"
       sodipodi:ry="22.5"
       sodipodi:start="0"
       sodipodi:end="6.2376148"
       sodipodi:open="true"
       sodipodi:arc-type="arc"
       inkscape:transform-center-x="-66.538653"
       inkscape:transform-center-y="26.598457"
       d="m 154,205.5 a 22.5,22.5 0 0 1 -22.24367,22.49854 22.5,22.5 0 0 1 -22.75049,-21.98592 22.5,22.5 0 0 1 21.72531,-22.99948 22.5,22.5 0 0 1 23.24549,21.46188" />
    <circle
       style="fill:#ffff00;stroke-width:0.541606"
       id="path18-6-0-2"
       sodipodi:type="arc"
       sodipodi:cx="131.5"
       sodipodi:cy="255.49994"
       sodipodi:rx="22.5"
       sodipodi:ry="22.5"
       sodipodi:start="0"
       sodipodi:end="6.2376148"
       sodipodi:open="true"
       sodipodi:arc-type="arc"
       inkscape:transform-center-x="-66.538653"
       inkscape:transform-center-y="26.598457"
       d="m 154,255.49994 a 22.5,22.5 0 0 1 -22.24367,22.49854 22.5,22.5 0 0 1 -22.75049,-21.98592 22.5,22.5 0 0 1 21.72531,-22.99948 22.5,22.5 0 0 1 23.24549,21.46188" />
    <circle
       style="fill:#ffff00;stroke-width:0.541606"
       id="path18-5-2-2"
       sodipodi:type="arc"
       sodipodi:cx="180.5"
       sodipodi:cy="255.49994"
       sodipodi:rx="22.5"
       sodipodi:ry="22.5"
       sodipodi:start="0"
       sodipodi:end="6.2376148"
       sodipodi:open="true"
       sodipodi:arc-type="arc"
       inkscape:transform-center-x="-66.538653"
       inkscape:transform-center-y="26.598457"
       d="m 203,255.49994 a 22.5,22.5 0 0 1 -22.24367,22.49854 22.5,22.5 0 0 1 -22.75049,-21.98592 22.5,22.5 0 0 1 21.72531,-22.99948 22.5,22.5 0 0 1 23.24549,21.46188" />
    <text
       xml:space="preserve"
       style="font-style:normal;font-weight:normal;font-size:10.5833px;line-height:1.25;font-family:sans-serif;fill:#000000;fill-opacity:1;stroke:none;stroke-width:0.264583"
       x="29.770081"
       y="160.58644"
       id="text297"><tspan
         sodipodi:role="line"
         id="tspan295"
         x="29.770081"
         y="160.58644"
         style="stroke-width:0.264583">FOXI Internal Missile Rack</tspan></text>
    <text
       xml:space="preserve"
       style="font-style:normal;font-weight:normal;font-size:10.5833px;line-height:1.25;font-family:sans-serif;fill:#000000;fill-opacity:1;stroke:none;stroke-width:0.264583"
       x="31.202446"
       y="20.363283"
       id="text301"><tspan
         sodipodi:role="line"
         id="tspan299"
         x="31.202446"
         y="20.363283"
         style="stroke-width:0.264583">OPLI Internal Missile Rack</tspan></text>
  </g>
</svg>
